<svg width="129" height="44" viewBox="0 0 129 44" fill="none" xmlns="http://www.w3.org/2000/svg">
<path fill-rule="evenodd" clip-rule="evenodd" d="M1 0C0.447715 0 0 0.447715 0 1V1.99078V43C0 43.5523 0.447715 44 1 44H40.4307C40.9829 44 41.4307 43.5523 41.4307 43V0.999999C41.4307 0.447714 40.9829 0 40.4307 0H1ZM9.61539 14.117C5.82536 18.6228 3.74727 24.3217 3.74727 30.2095V39.0204C3.74727 39.5726 4.19498 40.0204 4.74727 40.0204H36.6834C37.2357 40.0204 37.6834 39.5726 37.6834 39.0204V4.98156C37.6834 4.42928 37.2357 3.98156 36.6834 3.98156H29.7802C22.4008 3.98156 15.3984 7.24174 10.6483 12.889L9.61539 14.117ZM33.3146 36.8768C33.8668 36.8768 34.3146 36.4291 34.3146 35.8768V18.6672C34.3146 18.1149 33.8668 17.6672 33.3146 17.6672H18.9196C18.6439 17.6672 18.3805 17.781 18.1915 17.9817L14.2376 22.1808C14.0629 22.3663 13.9657 22.6115 13.9657 22.8663V35.8768C13.9657 36.4291 14.4134 36.8768 14.9657 36.8768H17.4876C18.0399 36.8768 18.4876 36.4291 18.4876 35.8768V23.4696C18.4876 22.9173 18.9354 22.4696 19.4876 22.4696H20.8791C21.4314 22.4696 21.8791 22.9173 21.8791 23.4696V35.8768C21.8791 36.4291 22.3268 36.8768 22.8791 36.8768H25.4011C25.9534 36.8768 26.4011 36.4291 26.4011 35.8768V23.4696C26.4011 22.9173 26.8488 22.4696 27.4011 22.4696H28.7926C29.3449 22.4696 29.7926 22.9173 29.7926 23.4696V35.8768C29.7926 36.4291 30.2403 36.8768 30.7926 36.8768H33.3146Z" fill="white"/>
<path d="M54.238 9.625H56.4449V17.5C56.4449 18.224 56.2928 18.8646 55.9888 19.4219C55.6896 19.974 55.2654 20.401 54.7161 20.7031C54.1669 21.0052 53.5465 21.1562 52.855 21.1562C51.7221 21.1562 50.8394 20.8516 50.2067 20.2422C49.5741 19.6276 49.2578 18.7604 49.2578 17.6406H51.4794C51.4794 18.1979 51.5897 18.6094 51.8104 18.875C52.0311 19.1406 52.3793 19.2734 52.855 19.2734C53.2767 19.2734 53.6127 19.1198 53.8628 18.8125C54.1129 18.5052 54.238 18.0677 54.238 17.5V9.625Z" fill="white"/>
<path d="M62.6683 14.6641C62.3789 14.6224 62.1239 14.6016 61.9032 14.6016C61.0989 14.6016 60.5717 14.8906 60.3216 15.4688V21H58.1957V12.5469H60.2039L60.2628 13.5547C60.6894 12.7786 61.2804 12.3906 62.0356 12.3906C62.271 12.3906 62.4917 12.4245 62.6977 12.4922L62.6683 14.6641Z" fill="white"/>
<path d="M62.5285 19.8906C62.5285 19.5312 62.6413 19.2396 62.8669 19.0156C63.0974 18.7917 63.3843 18.6797 63.7276 18.6797C64.0758 18.6797 64.3627 18.7917 64.5883 19.0156C64.8188 19.2396 64.934 19.5312 64.934 19.8906C64.934 20.2448 64.8212 20.5339 64.5956 20.7578C64.37 20.9766 64.0807 21.0859 63.7276 21.0859C63.3794 21.0859 63.0925 20.9766 62.8669 20.7578C62.6413 20.5339 62.5285 20.2448 62.5285 19.8906Z" fill="white"/>
<path d="M73.5777 9.625L76.3289 17.875L79.0655 9.625H81.9638V21H79.7496V17.8906L79.9703 12.5234L77.0793 21H75.5639L72.6802 12.5312L72.9009 17.8906V21H70.694V9.625H73.5777Z" fill="white"/>
<path d="M87.4149 21.1562C86.2477 21.1562 85.2962 20.776 84.5606 20.0156C83.8299 19.2552 83.4645 18.2422 83.4645 16.9766V16.7578C83.4645 15.9089 83.619 15.151 83.928 14.4844C84.2369 13.8125 84.6734 13.2969 85.2374 12.9375C85.8063 12.5729 86.4536 12.3906 87.1795 12.3906C88.2682 12.3906 89.124 12.7552 89.7468 13.4844C90.3745 14.2135 90.6884 15.2474 90.6884 16.5859V17.5078H85.6199C85.6886 18.0599 85.8946 18.5026 86.2379 18.8359C86.5861 19.1693 87.025 19.3359 87.5546 19.3359C88.3736 19.3359 89.0136 19.0208 89.4746 18.3906L90.5192 19.6328C90.2004 20.112 89.7689 20.487 89.2245 20.7578C88.6801 21.0234 88.0769 21.1562 87.4149 21.1562ZM87.1721 14.2188C86.7503 14.2188 86.407 14.3698 86.1422 14.6719C85.8823 14.974 85.7156 15.4062 85.642 15.9688H88.5992V15.7891C88.5894 15.2891 88.4619 14.9036 88.2167 14.6328C87.9715 14.3568 87.6233 14.2188 87.1721 14.2188Z" fill="white"/>
<path d="M93.859 12.5469L93.9252 13.5234C94.4941 12.7682 95.2567 12.3906 96.213 12.3906C97.0565 12.3906 97.6842 12.6536 98.0962 13.1797C98.5082 13.7057 98.719 14.4922 98.7288 15.5391V21H96.6029V15.5938C96.6029 15.1146 96.5048 14.7682 96.3086 14.5547C96.1125 14.3359 95.7863 14.2266 95.3302 14.2266C94.7319 14.2266 94.2832 14.4974 93.984 15.0391V21H91.8581V12.5469H93.859Z" fill="white"/>
<path d="M100.016 16.7109C100.016 15.3932 100.293 14.3438 100.847 13.5625C101.407 12.7812 102.169 12.3906 103.135 12.3906C103.91 12.3906 104.55 12.6979 105.055 13.3125V9H107.189V21H105.269L105.166 20.1016C104.636 20.8047 103.954 21.1562 103.121 21.1562C102.184 21.1562 101.431 20.7656 100.862 19.9844C100.298 19.1979 100.016 18.1068 100.016 16.7109ZM102.142 16.875C102.142 17.6667 102.272 18.2734 102.532 18.6953C102.792 19.1172 103.17 19.3281 103.665 19.3281C104.322 19.3281 104.786 19.0339 105.055 18.4453V15.1094C104.79 14.5208 104.332 14.2266 103.68 14.2266C102.655 14.2266 102.142 15.1094 102.142 16.875Z" fill="white"/>
<path d="M112.5 21.1562C111.333 21.1562 110.381 20.776 109.646 20.0156C108.915 19.2552 108.549 18.2422 108.549 16.9766V16.7578C108.549 15.9089 108.704 15.151 109.013 14.4844C109.322 13.8125 109.758 13.2969 110.322 12.9375C110.891 12.5729 111.539 12.3906 112.264 12.3906C113.353 12.3906 114.209 12.7552 114.832 13.4844C115.46 14.2135 115.773 15.2474 115.773 16.5859V17.5078H110.705C110.774 18.0599 110.98 18.5026 111.323 18.8359C111.671 19.1693 112.11 19.3359 112.64 19.3359C113.459 19.3359 114.099 19.0208 114.56 18.3906L115.604 19.6328C115.285 20.112 114.854 20.487 114.309 20.7578C113.765 21.0234 113.162 21.1562 112.5 21.1562ZM112.257 14.2188C111.835 14.2188 111.492 14.3698 111.227 14.6719C110.967 14.974 110.801 15.4062 110.727 15.9688H113.684V15.7891C113.674 15.2891 113.547 14.9036 113.302 14.6328C113.056 14.3568 112.708 14.2188 112.257 14.2188Z" fill="white"/>
<path d="M121.298 18.6641C121.298 18.388 121.168 18.1719 120.908 18.0156C120.653 17.8542 120.241 17.7109 119.672 17.5859C117.779 17.1641 116.833 16.3099 116.833 15.0234C116.833 14.2734 117.124 13.6484 117.708 13.1484C118.297 12.6432 119.064 12.3906 120.011 12.3906C121.021 12.3906 121.828 12.6432 122.431 13.1484C123.039 13.6536 123.343 14.3099 123.343 15.1172H121.217C121.217 14.7943 121.119 14.5286 120.923 14.3203C120.727 14.1068 120.42 14 120.003 14C119.645 14 119.368 14.0859 119.172 14.2578C118.976 14.4297 118.878 14.6484 118.878 14.9141C118.878 15.1641 118.988 15.3672 119.209 15.5234C119.434 15.6745 119.812 15.8073 120.342 15.9219C120.871 16.0312 121.318 16.1562 121.68 16.2969C122.804 16.7344 123.365 17.4922 123.365 18.5703C123.365 19.3411 123.054 19.9661 122.431 20.4453C121.808 20.9193 121.004 21.1562 120.018 21.1562C119.351 21.1562 118.758 21.0312 118.238 20.7812C117.723 20.526 117.318 20.1797 117.024 19.7422C116.73 19.2995 116.583 18.8229 116.583 18.3125H118.598C118.618 18.7135 118.758 19.0208 119.018 19.2344C119.277 19.4479 119.626 19.5547 120.062 19.5547C120.469 19.5547 120.776 19.474 120.982 19.3125C121.193 19.1458 121.298 18.9297 121.298 18.6641Z" fill="white"/>
<path d="M50.0633 35V25.7578H52.4959C53.2092 25.7578 53.8487 25.9313 54.4145 26.2783C54.9803 26.6211 55.4206 27.1141 55.7354 27.7573C56.0542 28.4006 56.2136 29.1327 56.2136 29.9536V30.8042C56.2136 31.6294 56.0562 32.3615 55.7414 33.0005C55.4266 33.6395 54.9823 34.1325 54.4085 34.4795C53.8387 34.8265 53.1833 35 52.4421 35H50.0633ZM50.7984 26.4243V34.3398H52.4481C53.3646 34.3398 54.0997 34.0182 54.6536 33.375C55.2075 32.7275 55.4844 31.8537 55.4844 30.7534V29.9409C55.4844 28.8787 55.2114 28.0282 54.6655 27.3892C54.1197 26.7502 53.4004 26.4285 52.5079 26.4243H50.7984Z" fill="white"/>
<path d="M60.4214 35.127C59.8715 35.127 59.3734 34.9831 58.9271 34.6953C58.4848 34.4076 58.1402 34.0077 57.8931 33.4956C57.6461 32.9793 57.5226 32.4017 57.5226 31.7627V31.4897C57.5226 30.8296 57.6421 30.235 57.8812 29.7061C58.1242 29.1771 58.4609 28.7624 58.8913 28.4619C59.3216 28.1572 59.7878 28.0049 60.2899 28.0049C61.0749 28.0049 61.6965 28.2905 62.1547 28.8618C62.6169 29.4289 62.848 30.2054 62.848 31.1914V31.6167H58.2338V31.7627C58.2338 32.5413 58.443 33.1909 58.8614 33.7114C59.2838 34.2277 59.8137 34.4858 60.4513 34.4858C60.8338 34.4858 61.1705 34.4118 61.4614 34.2637C61.7563 34.1156 62.0232 33.8786 62.2623 33.5527L62.7106 33.9146C62.1846 34.7228 61.4215 35.127 60.4214 35.127ZM60.2899 28.6523C59.752 28.6523 59.2977 28.8618 58.9271 29.2808C58.5606 29.6997 58.3374 30.2625 58.2577 30.9692H62.1368V30.8867C62.1169 30.2266 61.9395 29.6891 61.6048 29.2744C61.2701 28.8597 60.8318 28.6523 60.2899 28.6523Z" fill="white"/>
<path d="M66.1713 33.9526L68.1377 28.1318H68.8729L66.4582 35H65.8784L63.4517 28.1318H64.1869L66.1713 33.9526Z" fill="white"/>
<path d="M72.471 35.127C71.9211 35.127 71.423 34.9831 70.9768 34.6953C70.5345 34.4076 70.1898 34.0077 69.9427 33.4956C69.6957 32.9793 69.5722 32.4017 69.5722 31.7627V31.4897C69.5722 30.8296 69.6917 30.235 69.9308 29.7061C70.1738 29.1771 70.5106 28.7624 70.9409 28.4619C71.3712 28.1572 71.8374 28.0049 72.3395 28.0049C73.1245 28.0049 73.7461 28.2905 74.2043 28.8618C74.6666 29.4289 74.8977 30.2054 74.8977 31.1914V31.6167H70.2834V31.7627C70.2834 32.5413 70.4926 33.1909 70.911 33.7114C71.3334 34.2277 71.8633 34.4858 72.5009 34.4858C72.8834 34.4858 73.2201 34.4118 73.511 34.2637C73.8059 34.1156 74.0728 33.8786 74.3119 33.5527L74.7602 33.9146C74.2342 34.7228 73.4712 35.127 72.471 35.127ZM72.3395 28.6523C71.8016 28.6523 71.3473 28.8618 70.9768 29.2808C70.6102 29.6997 70.387 30.2625 70.3073 30.9692H74.1864V30.8867C74.1665 30.2266 73.9892 29.6891 73.6544 29.2744C73.3197 28.8597 72.8814 28.6523 72.3395 28.6523Z" fill="white"/>
<path d="M77.0912 35H76.374V25.25H77.0912V35Z" fill="white"/>
<path d="M78.6452 31.4644C78.6452 30.8042 78.7648 30.2096 79.0039 29.6807C79.2469 29.1517 79.5876 28.7412 80.0259 28.4492C80.4682 28.153 80.9683 28.0049 81.5261 28.0049C82.3868 28.0049 83.0841 28.3265 83.6181 28.9697C84.152 29.6087 84.419 30.4572 84.419 31.5151V31.6738C84.419 32.3382 84.2975 32.937 84.0544 33.4702C83.8153 33.9992 83.4766 34.4076 83.0383 34.6953C82.6 34.9831 82.0999 35.127 81.5381 35.127C80.6814 35.127 79.9841 34.8075 79.4462 34.1685C78.9122 33.5252 78.6452 32.6746 78.6452 31.6167V31.4644ZM79.3625 31.6738C79.3625 32.4948 79.5617 33.1698 79.9602 33.6987C80.3626 34.2235 80.8886 34.4858 81.5381 34.4858C82.1836 34.4858 82.7056 34.2235 83.1041 33.6987C83.5065 33.1698 83.7077 32.4736 83.7077 31.6104V31.4644C83.7077 30.9396 83.6161 30.4593 83.4328 30.0234C83.2495 29.5876 82.9925 29.2511 82.6618 29.0142C82.331 28.7729 81.9525 28.6523 81.5261 28.6523C80.8886 28.6523 80.3686 28.9189 79.9662 29.4521C79.5637 29.9811 79.3625 30.6751 79.3625 31.5342V31.6738Z" fill="white"/>
<path d="M91.1013 31.6357C91.1013 32.7064 90.8781 33.557 90.4319 34.1875C89.9856 34.8138 89.3879 35.127 88.6388 35.127C87.7542 35.127 87.0768 34.7969 86.6066 34.1367V37.6406H85.8953V28.1318H86.5588L86.5946 29.103C87.0608 28.3709 87.7362 28.0049 88.6208 28.0049C89.3939 28.0049 89.9995 28.3159 90.4378 28.938C90.8801 29.5601 91.1013 30.4233 91.1013 31.5278V31.6357ZM90.384 31.5024C90.384 30.6265 90.2147 29.9346 89.876 29.4268C89.5373 28.9189 89.0651 28.665 88.4595 28.665C88.0211 28.665 87.6446 28.7772 87.3298 29.0015C87.015 29.2257 86.7739 29.5516 86.6066 29.979V33.2734C86.7779 33.667 87.023 33.9674 87.3418 34.1748C87.6605 34.3822 88.0371 34.4858 88.4714 34.4858C89.0731 34.4858 89.5413 34.2319 89.876 33.7241C90.2147 33.2121 90.384 32.4715 90.384 31.5024Z" fill="white"/>
<path d="M95.1955 35.127C94.6456 35.127 94.1476 34.9831 93.7013 34.6953C93.259 34.4076 92.9143 34.0077 92.6673 33.4956C92.4202 32.9793 92.2967 32.4017 92.2967 31.7627V31.4897C92.2967 30.8296 92.4162 30.235 92.6553 29.7061C92.8984 29.1771 93.2351 28.7624 93.6654 28.4619C94.0958 28.1572 94.562 28.0049 95.064 28.0049C95.849 28.0049 96.4706 28.2905 96.9289 28.8618C97.3911 29.4289 97.6222 30.2054 97.6222 31.1914V31.6167H93.0079V31.7627C93.0079 32.5413 93.2171 33.1909 93.6355 33.7114C94.0579 34.2277 94.5879 34.4858 95.2254 34.4858C95.6079 34.4858 95.9446 34.4118 96.2355 34.2637C96.5304 34.1156 96.7974 33.8786 97.0364 33.5527L97.4847 33.9146C96.9587 34.7228 96.1957 35.127 95.1955 35.127ZM95.064 28.6523C94.5261 28.6523 94.0718 28.8618 93.7013 29.2808C93.3347 29.6997 93.1115 30.2625 93.0319 30.9692H96.9109V30.8867C96.891 30.2266 96.7137 29.6891 96.379 29.2744C96.0443 28.8597 95.6059 28.6523 95.064 28.6523Z" fill="white"/>
<path d="M102.003 28.7793C101.852 28.7497 101.691 28.7349 101.519 28.7349C101.073 28.7349 100.694 28.8682 100.384 29.1348C100.077 29.3971 99.8576 29.7801 99.7261 30.2837V35H99.0148V28.1318H99.7141L99.7261 29.2236C100.105 28.4111 100.712 28.0049 101.549 28.0049C101.748 28.0049 101.906 28.0324 102.021 28.0874L102.003 28.7793Z" fill="white"/>
</svg>
