<?xml version="1.0" encoding="UTF-8" standalone="no"?>
<svg
   xmlns:dc="http://purl.org/dc/elements/1.1/"
   xmlns:cc="http://creativecommons.org/ns#"
   xmlns:rdf="http://www.w3.org/1999/02/22-rdf-syntax-ns#"
   xmlns:svg="http://www.w3.org/2000/svg"
   xmlns="http://www.w3.org/2000/svg"
   xmlns:sodipodi="http://sodipodi.sourceforge.net/DTD/sodipodi-0.dtd"
   xmlns:inkscape="http://www.inkscape.org/namespaces/inkscape"
   inkscape:version="1.0 (4035a4fb49, 2020-05-01)"
   sodipodi:docname="brand.svg"
   id="svg40"
   version="1.1"
   fill="none"
   viewBox="0 0 42.430698 45"
   height="45"
   width="42.430698">
  <metadata
     id="metadata46">
    <rdf:RDF>
      <cc:Work
         rdf:about="">
        <dc:format>image/svg+xml</dc:format>
        <dc:type
           rdf:resource="http://purl.org/dc/dcmitype/StillImage" />
      </cc:Work>
    </rdf:RDF>
  </metadata>
  <defs
     id="defs44" />
  <sodipodi:namedview
     inkscape:current-layer="svg40"
     inkscape:window-maximized="0"
     inkscape:window-y="0"
     inkscape:window-x="0"
     inkscape:cy="6.817782"
     inkscape:cx="81.469326"
     inkscape:zoom="2.3410853"
     showgrid="false"
     id="namedview42"
     inkscape:window-height="480"
     inkscape:window-width="918"
     inkscape:pageshadow="2"
     inkscape:pageopacity="0"
     guidetolerance="10"
     gridtolerance="10"
     objecttolerance="10"
     borderopacity="1"
     bordercolor="#666666"
     pagecolor="#ffffff" />
  <path
     style="fill:#000000;stroke:#ffffff"
     id="path2"
     fill="#ffffff"
     d="m 1.5,0.5 c -0.552285,0 -1,0.447715 -1,1 V 2.49078 43.5 c 0,0.5523 0.447715,1 1,1 h 39.4307 c 0.5522,0 1,-0.4477 1,-1 V 1.499999 C 41.9307,0.947714 41.4829,0.5 40.9307,0.5 Z m 8.61539,14.117 C 6.32536,19.1228 4.24727,24.8217 4.24727,30.7095 v 8.8109 c 0,0.5522 0.44771,1 1,1 H 37.1834 c 0.5523,0 1,-0.4478 1,-1 V 5.48156 c 0,-0.55228 -0.4477,-1 -1,-1 h -6.9032 c -7.3794,0 -14.3818,3.26018 -19.1319,8.90744 z M 33.8146,37.3768 c 0.5522,0 1,-0.4477 1,-1 V 19.1672 c 0,-0.5523 -0.4478,-1 -1,-1 h -14.395 c -0.2757,0 -0.5391,0.1138 -0.7281,0.3145 l -3.9539,4.1991 c -0.1747,0.1855 -0.2719,0.4307 -0.2719,0.6855 v 13.0105 c 0,0.5523 0.4477,1 1,1 h 2.5219 c 0.5523,0 1,-0.4477 1,-1 V 23.9696 c 0,-0.5523 0.4478,-1 1,-1 h 1.3915 c 0.5523,0 1,0.4477 1,1 v 12.4072 c 0,0.5523 0.4477,1 1,1 h 2.522 c 0.5523,0 1,-0.4477 1,-1 V 23.9696 c 0,-0.5523 0.4477,-1 1,-1 h 1.3915 c 0.5523,0 1,0.4477 1,1 v 12.4072 c 0,0.5523 0.4477,1 1,1 z"
     clip-rule="evenodd"
     fill-rule="evenodd" />
</svg>
