<?xml version="1.0" standalone="no"?>
<!DOCTYPE svg PUBLIC "-//W3C//DTD SVG 20010904//EN"
 "http://www.w3.org/TR/2001/REC-SVG-20010904/DTD/svg10.dtd">
<svg version="1.0" xmlns="http://www.w3.org/2000/svg"
 width="720.000000pt" height="720.000000pt" viewBox="0 0 720.000000 720.000000"
 preserveAspectRatio="xMidYMid meet">
<metadata>
Created by potrace 1.11, written by Peter Selinger 2001-2013
</metadata>
<g transform="translate(0.000000,720.000000) scale(0.100000,-0.100000)"
fill="#000000" stroke="none">
<path d="M375 7188 c-34 -12 -92 -53 -117 -83 -9 -11 -24 -40 -33 -64 -13 -40
-15 -408 -15 -3448 l0 -3403 21 -45 c25 -53 68 -97 118 -122 34 -17 178 -18
3256 -18 3078 0 3222 1 3256 18 45 22 90 66 108 104 7 15 17 36 22 45 5 10 9
1489 9 3421 0 3073 -1 3408 -16 3450 -16 47 -66 104 -119 135 -28 16 -216 17
-3245 19 -2228 1 -3224 -2 -3245 -9z m5796 -787 c31 -2 61 -36 69 -79 4 -23 5
-42 1 -42 -6 0 -5 -24 1 -117 2 -24 1 -43 -2 -43 -7 0 -5 -69 3 -76 3 -3 2
-17 -3 -30 -6 -14 -6 -26 1 -29 5 -4 7 -10 4 -15 -5 -9 -7 -78 -3 -132 2 -21
1 -38 -2 -38 -7 0 -4 -69 3 -76 3 -3 2 -17 -3 -30 -5 -13 -6 -24 -2 -24 4 0 7
-43 7 -95 0 -52 -2 -95 -5 -95 -7 0 -4 -89 3 -96 3 -4 2 -17 -3 -30 -6 -14 -6
-24 0 -24 5 0 5 -12 1 -27 -5 -16 -5 -37 -1 -48 4 -11 4 -27 -1 -36 -5 -9 -6
-19 -3 -22 7 -7 11 -197 4 -197 -5 0 -4 -27 2 -117 2 -24 1 -43 -2 -43 -7 0
-5 -69 3 -76 3 -3 2 -17 -3 -30 -6 -14 -6 -26 1 -29 5 -4 7 -10 4 -15 -5 -9
-7 -78 -3 -132 2 -21 1 -38 -2 -38 -7 0 -4 -69 3 -76 3 -3 2 -17 -3 -30 -5
-13 -6 -24 -2 -24 4 0 7 -43 7 -95 0 -52 -2 -95 -5 -95 -7 0 -4 -89 3 -96 3
-4 2 -17 -3 -30 -6 -14 -6 -24 0 -24 5 0 5 -12 1 -27 -5 -16 -5 -37 -1 -48 4
-11 4 -27 -1 -36 -5 -9 -6 -19 -3 -22 7 -7 11 -197 4 -197 -5 0 -4 -27 2 -117
2 -24 1 -43 -2 -43 -7 0 -5 -69 3 -76 3 -3 2 -17 -3 -30 -6 -14 -6 -26 1 -29
5 -4 7 -10 4 -15 -5 -9 -7 -78 -3 -132 2 -21 1 -38 -2 -38 -7 0 -4 -69 3 -76
3 -3 2 -17 -3 -30 -5 -13 -6 -24 -2 -24 4 0 7 -43 7 -95 0 -52 -2 -95 -5 -95
-7 0 -4 -89 3 -96 3 -4 2 -17 -3 -30 -6 -14 -6 -24 0 -24 5 0 5 -12 1 -27 -5
-16 -5 -37 -1 -48 4 -11 4 -27 -1 -36 -5 -9 -6 -19 -3 -22 7 -7 11 -197 4
-197 -5 0 -4 -27 2 -117 2 -24 1 -43 -2 -43 -7 0 -5 -69 3 -76 3 -3 2 -16 -3
-29 -5 -13 -6 -25 -3 -28 6 -7 10 -187 3 -187 -7 0 -4 -89 3 -96 3 -4 2 -17
-3 -30 -6 -14 -6 -24 0 -24 5 0 5 -12 1 -27 -5 -16 -5 -37 -1 -48 4 -11 4 -27
-1 -36 -5 -9 -6 -19 -3 -22 7 -7 11 -197 4 -197 -5 0 -4 -27 2 -117 2 -24 1
-43 -2 -43 -7 0 -5 -69 3 -76 3 -3 2 -17 -3 -30 -5 -13 -6 -24 -2 -24 4 0 7
-43 7 -95 0 -52 -2 -95 -5 -95 -7 0 -4 -89 3 -96 3 -4 1 -18 -4 -33 -6 -14 -9
-28 -8 -31 1 -3 -11 -14 -27 -25 -30 -20 -43 -20 -2601 -20 -2407 1 -2572 2
-2597 18 -14 10 -28 28 -32 41 -7 29 1 1730 8 1771 3 17 9 62 12 100 4 39 9
77 11 85 2 8 6 35 9 60 3 25 8 56 11 70 3 14 7 39 9 55 3 17 10 53 16 80 7 28
14 61 16 75 3 14 7 33 10 42 3 9 7 25 9 37 26 135 146 484 231 669 13 29 24
57 24 62 0 6 5 10 10 10 6 0 10 6 10 13 0 7 9 30 21 52 81 155 114 213 130
237 11 14 19 29 19 33 0 7 198 307 209 315 3 3 22 27 41 53 19 27 44 58 55 70
11 13 49 58 85 102 35 44 67 82 70 85 3 3 43 50 90 105 158 185 362 379 560
533 58 45 113 88 123 97 9 8 22 15 27 15 6 0 10 5 10 10 0 6 6 10 14 10 8 0
16 4 18 8 10 24 350 224 513 302 106 51 340 150 365 155 8 2 16 4 18 4 1 1 4
1 7 1 3 0 18 6 35 15 16 8 37 17 47 18 10 2 27 7 38 11 11 5 31 12 45 17 27 9
253 69 285 75 11 2 54 11 95 19 115 23 122 25 165 30 22 3 69 10 105 15 102
14 182 21 281 25 50 2 93 5 94 7 3 3 1203 2 1246 -1z"/>
<path d="M3273 4368 c-63 -10 -101 -40 -228 -174 -66 -70 -138 -147 -160 -170
-22 -23 -89 -95 -150 -159 -60 -65 -134 -143 -164 -174 -78 -81 -99 -113 -114
-162 -10 -35 -13 -271 -12 -1124 0 -1209 -6 -1111 73 -1193 64 -67 87 -71 373
-71 139 0 257 3 263 7 6 3 17 7 24 8 25 4 102 69 108 92 3 12 10 22 14 22 25
0 28 128 29 1100 0 1081 -2 1051 46 1067 11 4 74 8 140 9 132 1 179 -11 189
-49 3 -12 6 -480 6 -1040 0 -916 2 -1022 17 -1060 20 -52 65 -102 118 -130 38
-21 55 -22 299 -24 l259 -3 53 26 c59 29 96 66 120 121 15 35 17 129 19 1063
1 564 3 1030 4 1036 0 6 10 22 22 35 19 22 26 23 152 24 143 2 181 -8 196 -48
5 -13 9 -475 8 -1027 0 -553 4 -1021 8 -1040 15 -71 61 -131 128 -167 28 -16
66 -18 282 -21 169 -2 263 0 289 8 49 15 94 44 125 82 54 67 52 -2 52 1529 l0
1418 -21 46 c-27 58 -63 96 -120 125 l-45 23 -1182 1 c-650 1 -1199 -2 -1220
-6z"/>
</g>
</svg>
